<svg xmlns="http://www.w3.org/2000/svg" viewBox="0 0 183.66 62.29"><defs><style>.cls-1{fill:#ed1c24;}</style></defs><title>Asset 1</title><g id="Layer_2" data-name="Layer 2"><g id="Layer_1-2" data-name="Layer 1"><path class="cls-1" d="M103.44,19.13h-19A3.2,3.2,0,0,0,81,22.29H77.12l3.29-11.46c0-.19.1-.37.14-.55a8.76,8.76,0,0,0,.18-4A7,7,0,0,0,79,2.9,8.45,8.45,0,0,0,75.6.75,13.67,13.67,0,0,0,71,0H9.9l4.48,12.05L0,62.29H53.14a17.59,17.59,0,0,0,5-.75,16.84,16.84,0,0,0,4.62-2.15,13.21,13.21,0,0,0,1.63-1.27,14.33,14.33,0,0,0,3.34-4.24,13.86,13.86,0,0,0,1-2.42l6.19-21.52a15.45,15.45,0,0,1,8.49-2.12h19a3.24,3.24,0,0,0,3.57-3.16l.28-2.37Q106.61,19.13,103.44,19.13ZM51.18,45.48h-27l8.22-28.67h27Z"/><path class="cls-1" d="M183.51,6.31a7,7,0,0,0-1.72-3.41A8.45,8.45,0,0,0,178.38.75,13.67,13.67,0,0,0,173.75,0H112.68l4.48,12.05-1.49,5.19-4.9,17.14c-2.34,1.95-5.53,2.91-9.57,2.91h-19a3.2,3.2,0,0,0-3.54,3.16l-.48,3.95H107.9l-2.71,9.48-2.41,8.41h53.14a17.59,17.59,0,0,0,5-.75,16.84,16.84,0,0,0,4.62-2.15A14.94,14.94,0,0,0,169.22,56a13.49,13.49,0,0,0,2.29-4.52l11.68-40.63A9.31,9.31,0,0,0,183.51,6.31ZM154,45.48H127l8.22-28.67h27Z"/></g></g></svg>